<?xml version="1.0" standalone="no"?>
<!DOCTYPE svg PUBLIC "-//W3C//DTD SVG 20010904//EN"
 "http://www.w3.org/TR/2001/REC-SVG-20010904/DTD/svg10.dtd">
<svg version="1.0" xmlns="http://www.w3.org/2000/svg"
 width="512.000000pt" height="512.000000pt" viewBox="0 0 512.000000 512.000000"
 preserveAspectRatio="xMidYMid meet">

<g transform="translate(0.000000,512.000000) scale(0.100000,-0.100000)"
fill="#000000" stroke="none">
<path d="M1298 4620 c-267 -45 -463 -203 -544 -440 -18 -53 -19 -105 -19
-1265 l0 -1210 23 -69 c74 -220 283 -387 532 -426 55 -8 483 -10 1605 -8
l1530 3 70 23 c123 42 204 91 291 177 90 88 134 163 159 267 22 96 22 2395 0
2483 -26 103 -72 182 -149 260 -109 111 -243 178 -406 204 -77 13 -3018 13
-3092 1z m3132 -86 c214 -50 390 -218 430 -408 7 -35 9 -439 8 -1241 -3 -1134
-4 -1192 -22 -1240 -62 -167 -218 -300 -411 -351 -67 -18 -138 -19 -1590 -19
-1420 0 -1524 1 -1585 18 -212 57 -375 206 -422 386 -15 61 -17 163 -17 1228
-1 810 2 1178 10 1215 39 189 207 352 421 408 70 18 130 19 1593 19 1330 1
1528 -1 1585 -15z"/>
<path d="M3606 4010 c-27 -10 -66 -33 -87 -50 -21 -16 -40 -30 -43 -30 -3 0
-6 18 -6 40 l0 40 -65 0 -65 0 0 -510 0 -510 70 0 70 0 0 186 0 186 35 -31
c59 -51 99 -64 205 -65 84 -1 102 2 156 27 113 53 174 144 196 296 27 185 -39
337 -177 409 -69 36 -215 42 -289 12z m212 -110 c78 -44 113 -120 113 -248 0
-104 -20 -168 -68 -217 -48 -50 -95 -68 -169 -67 -152 1 -237 119 -220 303 13
138 58 209 155 246 50 19 140 10 189 -17z"/>
<path d="M2218 3405 c-206 -51 -377 -222 -432 -435 -45 -171 -27 -418 39 -558
84 -178 291 -291 532 -292 172 0 293 41 390 132 l53 51 0 -84 c0 -174 -33
-282 -107 -350 -81 -74 -198 -106 -352 -96 -148 10 -226 51 -268 143 l-24 54
-124 0 -123 0 9 -42 c35 -154 142 -251 334 -304 94 -25 313 -30 431 -9 183 33
328 132 392 267 64 136 64 138 69 856 l5 652 -116 0 -116 0 0 -75 0 -76 -62
52 c-70 58 -155 101 -236 118 -71 15 -224 13 -294 -4z m341 -194 c159 -60 237
-182 248 -386 11 -193 -36 -337 -142 -434 -81 -73 -144 -95 -280 -95 -100 -1
-115 2 -166 27 -138 67 -209 207 -209 415 0 277 109 449 313 492 63 13 175 5
236 -19z"/>
</g>
</svg>
