<?xml version="1.0" standalone="no"?>
<!DOCTYPE svg PUBLIC "-//W3C//DTD SVG 20010904//EN"
 "http://www.w3.org/TR/2001/REC-SVG-20010904/DTD/svg10.dtd">
<svg version="1.0" xmlns="http://www.w3.org/2000/svg"
 width="512.000000pt" height="512.000000pt" viewBox="0 0 512.000000 512.000000"
 preserveAspectRatio="xMidYMid meet">

<g transform="translate(0.000000,512.000000) scale(0.100000,-0.100000)"
fill="#000000" stroke="none">
<path d="M1415 4694 c-230 -49 -422 -231 -476 -454 -11 -45 -14 -293 -14
-1340 l0 -1285 28 -78 c81 -230 268 -383 510 -416 109 -15 2575 -15 2683 0
148 20 273 84 376 191 65 68 130 187 147 270 8 37 11 439 9 1358 l-3 1305 -24
60 c-81 203 -253 347 -463 389 -113 23 -2665 22 -2773 0z m2325 -769 c99 -34
180 -116 221 -224 30 -77 38 -276 15 -374 -30 -130 -96 -223 -193 -275 -139
-74 -318 -57 -408 38 l-30 31 -5 -218 -5 -218 -80 0 -80 0 -3 618 -2 617 80 0
80 0 0 -51 0 -51 40 35 c100 91 239 118 370 72z m-1452 -500 c86 -20 156 -58
218 -117 l53 -50 3 72 3 72 100 0 100 0 0 -684 0 -683 -26 -77 c-62 -181 -174
-285 -361 -335 -80 -22 -308 -24 -388 -4 -145 36 -255 111 -303 208 -19 38
-47 132 -47 158 0 3 53 5 118 5 l119 0 11 -37 c34 -112 106 -155 269 -161 142
-6 225 19 293 87 64 64 89 142 97 305 l6 120 -37 -41 c-78 -87 -177 -129 -326
-139 -256 -18 -470 119 -550 350 -45 133 -50 364 -10 520 80 314 364 500 658
431z"/>
<path d="M3498 3794 c-59 -18 -118 -83 -142 -156 -27 -81 -32 -219 -12 -298
30 -117 81 -169 184 -191 191 -39 328 150 293 406 -18 129 -76 214 -165 240
-61 18 -97 18 -158 -1z"/>
<path d="M2095 3227 c-120 -40 -193 -123 -232 -262 -20 -73 -28 -268 -14 -350
24 -144 106 -255 213 -291 77 -25 208 -16 281 20 135 66 217 232 217 441 0
209 -79 367 -213 426 -64 27 -192 36 -252 16z"/>
</g>
</svg>
