<svg xmlns="http://www.w3.org/2000/svg" width="256" height="256" viewBox="0 0 100 100"><rect width="100" height="100" rx="20" fill="#4c4c52"></rect><path fill="#fff" d="M49.37 36.14L49.37 36.14Q53.51 36.14 57.11 37.49Q60.71 38.84 63.36 41.54Q66.02 44.24 67.50 48.38Q68.99 52.52 68.99 58.10L68.99 58.10Q68.99 63.77 67.46 67.91Q65.93 72.05 63.19 74.75Q60.44 77.45 56.57 78.75Q52.70 80.06 48.11 80.06L48.11 80.06Q43.70 80.06 40.14 79.03Q36.59 77.99 34.34 76.64L34.34 76.64Q32.45 75.47 31.73 74.34Q31.01 73.22 31.01 71.33L31.01 71.33L31.01 20.57Q31.46 20.39 32.41 20.17Q33.35 19.94 34.43 19.94L34.43 19.94Q38.21 19.94 38.21 23.18L38.21 23.18L38.21 39.29Q40.19 38.03 42.94 37.09Q45.68 36.14 49.37 36.14ZM48.29 42.08L48.29 42.08Q45.14 42.08 42.58 43.21Q40.01 44.33 38.21 45.86L38.21 45.86L38.21 71.33Q39.56 72.32 42.13 73.22Q44.69 74.12 48.11 74.12L48.11 74.12Q51.17 74.12 53.64 73.17Q56.12 72.23 57.92 70.25Q59.72 68.27 60.71 65.25Q61.70 62.24 61.70 58.10L61.70 58.10Q61.70 53.96 60.71 50.90Q59.72 47.84 57.92 45.91Q56.12 43.97 53.64 43.02Q51.17 42.08 48.29 42.08Z"></path></svg>